# xmcd CD database file
#
# Track frame offsets:
#	151
#	11445
#	21719
#	38706
#	50699
#	65320
#	73530
#	86562
#	99014
#	111287
#	123655
#	132807
#	148611
#	161172
#	173987
#	185576
#
# Disc length: 2601 seconds
#
# Revision: 0
# Processed by: cddbd v1.5.2PL0 Copyright (c) Steve Scherf et al.
# Submitted via: CDex 1.70beta2
#
DISCID=e00a2710
DTITLE=Moravanka (Ltg. Jan Slabák) - Die größten Erfolge
DYEAR=1985
DGENRE=Blasmusik
TTITLE0=Immer wenn musik erklingt
TTITLE1=Heute Abend Katerina
TTITLE2=Das ist Böhmen
TTITLE3=Polka tanzen ist so schön
TTITLE4=Trenčín ist ein schönes Städtchen 
TTITLE5=Schatz, wozu die Tränen
TTITLE6=Laß die Pferdchen traben
TTITLE7=Schau nach vorn und nicht zurück
TTITLE8=Wenn ich wieder bei dir bin
TTITLE9=Wer will mit uns wandern
TTITLE10=Wo mein Herz ist, ist die Heimat
TTITLE11=Du bist wie die Sonne
TTITLE12=Geht ein Bursch auf Freiersfüssen
TTITLE13=Wenn die andern von dir gehen
TTITLE14=Alles geht vorüber
TTITLE15=Abschiedslied
EXTD=YEAR: 1985
EXTT0=
EXTT1=
EXTT2=
EXTT3=
EXTT4=
EXTT5=
EXTT6=
EXTT7=
EXTT8=
EXTT9=
EXTT10=
EXTT11=
EXTT12=
EXTT13=
EXTT14=
EXTT15=
PLAYORDER=
